<svg xmlns="http://www.w3.org/2000/svg" viewBox="0 0 142 105">
  <style type="text/css">.cls-1 {fill:#E57147;}
.cls-2 {fill:#030202;}
.cls-3 {fill:#020101;}
.cls-4 {fill:#DD6F49;}
.cls-5 {fill:#6E5146;}</style>
  <polygon class="cls-1" points="123.7 24.4 141.1 25.2 139.8 42.1 122.4 41.4 119.8 77.7 16.1 76.1 18.9 38.5 1.1 37.9 2.4 19.5 20.3 20.4 21.7 0.6 125.1 5.4"/>
  <polygon class="cls-1" points="48.9 81 58.3 81.1 46.7 104.3 32.8 98.1 37.1 90.3 43.3 92.7"/>
  <polygon class="cls-4" points="84 83.6 87.6 80.2 92.2 80.2 97.4 87.7 103 82.5 110.2 88 96.7 101.2"/>
  <polygon class="cls-3" points="40.8 21.2 51.1 21.6 49.7 38.2 39.3 37.9"/>
  <polygon class="cls-2" points="98.5 23.7 108.2 24.1 106.9 40.2 97.2 39.8"/>
  <polygon class="cls-5" points="33 98.1 36 99 35.6 97.6 34.6 97.4"/>
</svg>
