<svg xmlns="http://www.w3.org/2000/svg" viewBox="0 0 142 142" role="img" aria-labelledby="title desc">
  <title id="title">Jumping Clawd icon</title>
  <desc id="desc">The Clawd mascot jumping with down-swept arms, block eyes, and two angled legs.</desc>

  <path d="M1 59.4L20.7 44L31.3 57.7L11.6 73.1Z" fill="#E57147"/>
  <path d="M121.3 44L141 59.4L130.4 73.1L110.7 57.7Z" fill="#E57147"/>
  <path d="M123.7 41.9L122.4 58.9L119.8 95.2L16.1 93.6L18.9 56L20.3 37.9L21.7 18.1L125.1 22.9Z" fill="#E57147"/>
  <path d="M47.4 98.4L60.5 98.5L47.7 124L30.8 116.4L35.8 106.3L42.9 109.2Z" fill="#E57147"/>
  <path d="M82.5 101.7L93.5 97.1L99 105.5L103.7 101.1L112.3 106.2L96.6 121.7Z" fill="#DD6F49"/>
  <path d="M40.8 38.7L51.1 39.1L49.7 55.7L39.3 55.4Z" fill="#020101"/>
  <path d="M98.5 41.2L108.2 41.6L106.9 57.7L97.2 57.3Z" fill="#030202"/>
</svg>
